<?xml version="1.0" standalone="no"?>
<!DOCTYPE svg PUBLIC "-//W3C//DTD SVG 20010904//EN"
 "http://www.w3.org/TR/2001/REC-SVG-20010904/DTD/svg10.dtd">
<svg version="1.0" xmlns="http://www.w3.org/2000/svg"
 width="300.000000pt" height="300.000000pt" viewBox="0 0 300.000000 300.000000"
 preserveAspectRatio="xMidYMid meet">

<g transform="translate(0.000000,300.000000) scale(0.100000,-0.100000)"
fill="#ffffff" stroke="none">
<path d="M0 1500 l0 -1500 1500 0 1500 0 0 1500 0 1500 -1500 0 -1500 0 0
-1500z m2281 1432 c210 -101 312 -365 231 -598 -94 -269 -371 -474 -832 -615
-52 -16 -79 -27 -60 -24 114 16 246 25 400 25 277 0 444 -32 630 -122 185 -89
305 -235 331 -401 26 -167 -53 -318 -209 -394 -75 -37 -78 -38 -192 -38 -131
0 -197 17 -335 89 -168 86 -394 288 -560 500 -39 49 -78 98 -87 110 -10 11 16
-44 56 -124 212 -424 262 -790 142 -1045 -106 -225 -335 -322 -533 -225 -153
75 -233 238 -233 476 0 260 90 535 298 904 33 59 21 46 -74 -80 -97 -129 -302
-338 -407 -414 -168 -123 -312 -180 -457 -180 -106 0 -178 26 -249 90 -165
149 -165 422 1 608 212 238 605 318 1138 231 19 -3 -21 14 -90 38 -575 202
-877 474 -858 773 15 232 252 405 500 365 316 -50 547 -399 608 -916 7 -55 15
-125 20 -155 l8 -55 1 52 c2 84 30 290 57 413 86 394 244 645 457 726 92 35
207 30 298 -14z"/>
</g>
</svg>
