<?xml version="1.0" standalone="no"?>
<!DOCTYPE svg PUBLIC "-//W3C//DTD SVG 20010904//EN"
 "http://www.w3.org/TR/2001/REC-SVG-20010904/DTD/svg10.dtd">
<svg version="1.0" xmlns="http://www.w3.org/2000/svg"
 width="300.000000pt" height="300.000000pt" viewBox="0 0 300.000000 300.000000"
 preserveAspectRatio="xMidYMid meet">

<g transform="translate(0.000000,300.000000) scale(0.100000,-0.100000)"
fill="#000000" stroke="none">
<path d="M0 1500 l0 -1500 1500 0 1500 0 0 1500 0 1500 -1500 0 -1500 0 0
-1500z m2273 1437 c74 -34 166 -122 205 -195 117 -220 69 -463 -131 -665 -145
-147 -350 -258 -657 -356 -61 -20 -63 -21 -20 -16 125 13 506 17 593 5 404
-54 672 -244 718 -508 29 -166 -52 -322 -209 -399 -75 -37 -78 -38 -191 -38
-96 0 -128 4 -186 24 -98 33 -196 84 -290 149 -101 70 -348 317 -444 445 -41
53 -75 97 -76 97 -1 0 33 -69 75 -153 87 -174 160 -384 184 -526 48 -283 -9
-519 -158 -659 -86 -80 -151 -106 -266 -107 -77 0 -92 3 -152 33 -114 56 -189
159 -224 309 -24 100 -14 325 19 453 45 174 146 414 253 600 42 74 35 70 -25
-13 -174 -239 -412 -462 -596 -559 -276 -144 -530 -97 -635 116 -126 256 29
557 353 686 153 61 237 74 477 74 152 0 244 -5 315 -17 54 -9 101 -15 102 -13
2 2 -25 11 -59 21 -97 27 -272 97 -383 153 -360 181 -548 405 -533 636 16 247
273 423 532 362 317 -75 530 -432 586 -986 13 -122 20 -152 20 -79 0 25 7 98
15 164 65 528 243 874 498 971 86 33 206 30 290 -9z"/>
<path d="M1598 1693 c7 -3 16 -2 19 1 4 3 -2 6 -13 5 -11 0 -14 -3 -6 -6z"/>
</g>
</svg>
