<?xml version="1.0" standalone="no"?>
<!DOCTYPE svg PUBLIC "-//W3C//DTD SVG 20010904//EN"
 "http://www.w3.org/TR/2001/REC-SVG-20010904/DTD/svg10.dtd">
<svg version="1.0" xmlns="http://www.w3.org/2000/svg"
 width="300.000000pt" height="300.000000pt" viewBox="0 0 300.000000 300.000000"
 preserveAspectRatio="xMidYMid meet">

<g transform="translate(0.000000,300.000000) scale(0.100000,-0.100000)"
fill="#000000" stroke="none">
<path d="M2005 2953 c-144 -52 -262 -168 -353 -349 -83 -164 -157 -483 -180
-774 l-8 -95 -8 75 c-45 453 -135 710 -314 902 -197 211 -511 231 -698 44
-127 -128 -147 -294 -56 -471 52 -103 204 -250 343 -333 133 -79 289 -149 476
-213 82 -27 137 -48 123 -45 -218 42 -539 54 -690 27 -250 -45 -438 -150 -539
-302 -138 -206 -95 -483 92 -592 121 -71 298 -64 473 19 191 90 422 302 616
563 89 120 98 130 58 61 -68 -117 -200 -400 -233 -501 -137 -409 -89 -741 125
-880 190 -122 447 -33 557 194 138 283 71 686 -195 1167 -25 47 -44 83 -41 80
3 -3 33 -43 68 -90 362 -492 769 -744 1074 -665 177 46 287 186 287 365 0 263
-226 468 -607 550 -143 31 -447 38 -644 16 -136 -16 -196 -17 -114 -1 21 4 91
24 157 46 270 91 488 223 616 374 191 226 199 512 20 709 -105 114 -277 164
-405 119z"/>
</g>
</svg>
